<svg width="22" height="22" viewBox="0 0 22 22" fill="none" xmlns="http://www.w3.org/2000/svg">
<path d="M20.4595 1H21C21 3.84444 18.4775 6.15556 16.6757 6.24444H14.8739C14.1532 10.1556 14.3333 14.3333 14.3333 15.5778C14.3333 16.5733 15.5045 17.9778 16.4054 17.9778C17.3063 17.9778 18.4595 17.6933 18.7477 15.8444H19.2883C19.2883 19.2578 17.2462 20.6444 16.2252 20.9111H14.964C13.1622 20.9111 12.0811 17.5333 11.9009 16.0222C11.9009 13.6222 12.3514 8.73333 12.5315 6.24444H8.20721C7.93694 17.6222 6.40541 20.2 4.9039 21H3.97297C3.46847 21 3.1021 20.2889 2.98198 19.9333V18.6889C6.13514 15.3111 6.40541 9.08889 6.40541 6.24444H5.32432C3.30631 6.24444 2.08108 8.02222 1.72072 8.91111H1C1.18018 6.68889 3.07207 4.37778 5.14414 3.75556C8.65766 3.75556 16.1892 3.57778 17.4865 3.57778C18.7838 3.57778 20.009 1.85926 20.4595 1Z" fill="black" stroke="black"/>
</svg>
